{"title":"Dark Tide 2012 HDRiP AC3-5 1 XviD-SiC","uid":7090381,"size":1470062767,"categoryP":"video","categoryS":"movies","magnet":"?xt=urn:btih:4f36642a4cd2c1438ec4156ab81c8e6ffd432a73&amp;dn=Dark+Tide+2012+HDRiP+AC3-5+1+XviD-SiC&amp;tr=udp%3A%2F%2Ftracker.openbittorrent.com%3A80&amp;tr=udp%3A%2F%2Fopen.demonii.com%3A1337&amp;tr=udp%3A%2F%2Ftracker.coppersurfer.tk%3A6969&amp;tr=udp%3A%2F%2Fexodus.desync.com%3A6969","seeders":0,"leechers":1,"uploader":"HeroMaster","files":-1,"time":1331355257,"description":"Dark.Tide.2012.HDRiP.AC3-5.1.XviD-SiC\n\nIMDB Link: &lt;a href=&quot;\nhttp://www.imdb.com/title/tt1507563/&quot; rel=&quot;nofollow&quot; target=&quot;_NEW&quot;&gt;\nhttp://www.imdb.com/title/tt1507563/&lt;/a&gt;\n\nDescription:\nA professional diver tutor Brady returns to deep waters after nine years following an almost fatal encounter with a great white shark, bringing a happy couple Kate and Jeff. However, before they know it they discover that the nightmare from the deep is still lurking in the deep, more carnivorous and hungry than ever.\n\nMediaInfo:\nGeneral\nFormat                                   : AVI\nFormat/Info                              : Audio Video Interleave\nFile size                                : 1.36 GiB\nDuration                                 : 1h 53mn\nOverall bit rate                         : 1 707 Kbps\n\nVideo\nID                                       : 0\nFormat                                   : MPEG-4 Visual\nFormat profile                           : Advanced Simple@L5\nFormat settings, BVOP                    : 2\nFormat settings, QPel                    : No\nFormat settings, GMC                     : No warppoints\nFormat settings, Matrix                  : Default (H.263)\nMuxing mode                              : Packed bitstream\nCodec ID                                 : XVID\nCodec ID/Hint                            : XviD\nDuration                                 : 1h 53mn\nBit rate                                 : 1 315 Kbps\nWidth                                    : 720 pixels\nHeight                                   : 304 pixels\nDisplay aspect ratio                     : 2.35:1\nFrame rate                               : 23.976 fps\nColor space                              : YUV\nChroma subsampling                       : 4:2:0\nBit depth                                : 8 bits\nScan type                                : Progressive\nCompression mode                         : Lossy\nBits/(Pixel*Frame)                       : 0.251\nStream size                              : 1.05 GiB (77%)\nWriting library                          : XviD 1.1.2 (UTC 2006-11-01)\n\nAudio\nID                                       : 1\nFormat                                   : AC-3\nFormat/Info                              : Audio Coding 3\nMode extension                           : CM (complete main)\nCodec ID                                 : 2000\nDuration                                 : 1h 53mn\nBit rate mode                            : Constant\nBit rate                                 : 384 Kbps\nChannel(s)                               : 6 channels\nChannel positions                        : Front: L C R, Side: L R, LFE\nSampling rate                            : 48.0 KHz\nBit depth                                : 16 bits\nCompression mode                         : Lossy\nStream size                              : 313 MiB (22%)\nAlignment                                : Aligned on interleaves\nInterleave, duration                     : 64 ms (1.53 video frames)\nInterleave, preload duration             : 192 ms\nTitle                                    : darktide\n\n\nPoster:\n\n &lt;a href=&quot;\nhttp://i.imgur.com/7qqIg.jpg&quot; rel=&quot;nofollow&quot; target=&quot;_NEW&quot;&gt;\nhttp://i.imgur.com/7qqIg.jpg&lt;/a&gt;\n\n\nScreenshots:\n\n &lt;a href=&quot;\nhttp://i.imgur.com/3r9SJ.jpg&quot; rel=&quot;nofollow&quot; target=&quot;_NEW&quot;&gt;\nhttp://i.imgur.com/3r9SJ.jpg&lt;/a&gt;\n\n\nENJOY!","torrent":{"xt":"urn:btih:4f36642a4cd2c1438ec4156ab81c8e6ffd432a73","amp;dn":"Dark+Tide+2012+HDRiP+AC3-5+1+XviD-SiC","amp;tr":["udp%3A%2F%2Ftracker.openbittorrent.com%3A80","udp%3A%2F%2Fopen.demonii.com%3A1337","udp%3A%2F%2Ftracker.coppersurfer.tk%3A6969","udp%3A%2F%2Fexodus.desync.com%3A6969"],"infoHash":"4f36642a4cd2c1438ec4156ab81c8e6ffd432a73","infoHashBuffer":{"type":"Buffer","data":[79,54,100,42,76,210,193,67,142,196,21,106,184,28,142,111,253,67,42,115]},"announce":[],"urlList":[]}}